<?xml version="1.0" encoding="UTF-8" standalone="no"?>
<svg
   xmlns:dc="http://purl.org/dc/elements/1.1/"
   xmlns:cc="http://creativecommons.org/ns#"
   xmlns:rdf="http://www.w3.org/1999/02/22-rdf-syntax-ns#"
   xmlns:svg="http://www.w3.org/2000/svg"
   xmlns="http://www.w3.org/2000/svg"
   xmlns:sodipodi="http://sodipodi.sourceforge.net/DTD/sodipodi-0.dtd"
   xmlns:inkscape="http://www.inkscape.org/namespaces/inkscape"
   width="85"
   height="110"
   viewBox="0 0 22.489583 29.104167"
   version="1.1"
   id="svg121"
   inkscape:version="1.0 (4035a4f, 2020-05-01)"
   sodipodi:docname="icon-upright-deal-state-conclusion-ambiguous.svg">
  <defs
     id="defs115" />
  <sodipodi:namedview
     id="base"
     pagecolor="#ffffff"
     bordercolor="#666666"
     borderopacity="1.0"
     inkscape:pageopacity="0.0"
     inkscape:pageshadow="2"
     inkscape:zoom="3.5448672"
     inkscape:cx="72.869148"
     inkscape:cy="85.521457"
     inkscape:document-units="px"
     inkscape:current-layer="layer1"
     inkscape:document-rotation="0"
     showgrid="false"
     units="px"
     inkscape:showpageshadow="false"
     inkscape:pagecheckerboard="true"
     inkscape:window-width="1440"
     inkscape:window-height="855"
     inkscape:window-x="0"
     inkscape:window-y="23"
     inkscape:window-maximized="0" />
  <metadata
     id="metadata118">
    <rdf:RDF>
      <cc:Work
         rdf:about="">
        <dc:format>image/svg+xml</dc:format>
        <dc:type
           rdf:resource="http://purl.org/dc/dcmitype/StillImage" />
        <dc:title />
        <cc:license
           rdf:resource="http://creativecommons.org/licenses/by/4.0/" />
        <dc:publisher>
          <cc:Agent>
            <dc:title>Tenon Garden Publications</dc:title>
          </cc:Agent>
        </dc:publisher>
        <dc:creator>
          <cc:Agent>
            <dc:title>Tenon Garden Productions</dc:title>
          </cc:Agent>
        </dc:creator>
        <dc:date>2020-08-20</dc:date>
      </cc:Work>
      <cc:License
         rdf:about="http://creativecommons.org/licenses/by/4.0/">
        <cc:permits
           rdf:resource="http://creativecommons.org/ns#Reproduction" />
        <cc:permits
           rdf:resource="http://creativecommons.org/ns#Distribution" />
        <cc:requires
           rdf:resource="http://creativecommons.org/ns#Notice" />
        <cc:requires
           rdf:resource="http://creativecommons.org/ns#Attribution" />
        <cc:permits
           rdf:resource="http://creativecommons.org/ns#DerivativeWorks" />
      </cc:License>
    </rdf:RDF>
  </metadata>
  <g
     inkscape:label="Layer 1"
     inkscape:groupmode="layer"
     id="layer1">
    <rect
       ry="1.0048374"
       rx="1.0048374"
       y="2.250129"
       x="7.1835737"
       height="17.333445"
       width="8.1224356"
       id="rect844"
       style="fill:#000000;stroke:none;stroke-width:0.891946;stroke-linecap:round;stroke-linejoin:round" />
    <rect
       style="fill:#ffffff;stroke:none;stroke-width:0.361755;stroke-linecap:round;stroke-linejoin:round"
       id="rect846"
       width="6.0220542"
       height="3.8457303"
       x="8.2337646"
       y="14.620076"
       rx="0.74456477"
       ry="0.74456477" />
    <g
       transform="translate(0.02373054)"
       id="g857">
      <rect
         style="fill:#ffffff;stroke:none;stroke-width:0.0769386;stroke-linecap:round;stroke-linejoin:round"
         id="rect848"
         width="1.0554254"
         height="0.99255842"
         x="9.1519585"
         y="7.0396738"
         rx="0.19216736"
         ry="0.19216736" />
      <rect
         ry="0.19216736"
         rx="0.19216736"
         y="7.0396738"
         x="10.693349"
         height="0.99255842"
         width="1.0554254"
         id="rect850"
         style="fill:#ffffff;stroke:none;stroke-width:0.0769386;stroke-linecap:round;stroke-linejoin:round" />
      <rect
         style="fill:#ffffff;stroke:none;stroke-width:0.0769386;stroke-linecap:round;stroke-linejoin:round"
         id="rect852"
         width="1.0554254"
         height="0.99255842"
         x="12.234738"
         y="7.0396738"
         rx="0.19216736"
         ry="0.19216736" />
    </g>
    <g
       id="g865"
       transform="translate(0.02373054,1.4356083)">
      <rect
         ry="0.19216736"
         rx="0.19216736"
         y="7.0396738"
         x="9.1519585"
         height="0.99255842"
         width="1.0554254"
         id="rect859"
         style="fill:#ffffff;stroke:none;stroke-width:0.0769386;stroke-linecap:round;stroke-linejoin:round" />
      <rect
         style="fill:#ffffff;stroke:none;stroke-width:0.0769386;stroke-linecap:round;stroke-linejoin:round"
         id="rect861"
         width="1.0554254"
         height="0.99255842"
         x="10.693349"
         y="7.0396738"
         rx="0.19216736"
         ry="0.19216736" />
      <rect
         ry="0.19216736"
         rx="0.19216736"
         y="7.0396738"
         x="12.234738"
         height="0.99255842"
         width="1.0554254"
         id="rect863"
         style="fill:#ffffff;stroke:none;stroke-width:0.0769386;stroke-linecap:round;stroke-linejoin:round" />
    </g>
    <g
       transform="translate(0.02373054,2.8712169)"
       id="g873">
      <rect
         style="fill:#ffffff;stroke:none;stroke-width:0.0769386;stroke-linecap:round;stroke-linejoin:round"
         id="rect867"
         width="1.0554254"
         height="0.99255842"
         x="9.1519585"
         y="7.0396738"
         rx="0.19216736"
         ry="0.19216736" />
      <rect
         ry="0.19216736"
         rx="0.19216736"
         y="7.0396738"
         x="10.693349"
         height="0.99255842"
         width="1.0554254"
         id="rect869"
         style="fill:#ffffff;stroke:none;stroke-width:0.0769386;stroke-linecap:round;stroke-linejoin:round" />
      <rect
         style="fill:#ffffff;stroke:none;stroke-width:0.0769386;stroke-linecap:round;stroke-linejoin:round"
         id="rect871"
         width="1.0554254"
         height="0.99255842"
         x="12.234738"
         y="7.0396738"
         rx="0.19216736"
         ry="0.19216736" />
    </g>
    <rect
       ry="0.19216736"
       rx="0.19216736"
       y="11.346499"
       x="10.717079"
       height="0.99255842"
       width="1.0554254"
       id="rect877"
       style="fill:#ffffff;stroke:none;stroke-width:0.0769386;stroke-linecap:round;stroke-linejoin:round" />
    <path
       d="m 9.7692098,4.8737905 c -0.080551,0 -0.1607993,0.030812 -0.2225215,0.092534 -0.1234441,0.1234443 -0.1234441,0.3223332 0,0.4457772 l 0.3998778,0.3998779 c 0.044939,0.044938 0.099893,0.073337 0.1575279,0.085557 0.02324,0.011725 0.04847,0.019829 0.07638,0.019829 h 2.128274 c 0.02789,0 0.05314,-0.00812 0.07638,-0.019829 0.05763,-0.01222 0.112956,-0.040618 0.157895,-0.085557 l 0.399878,-0.3998779 c 0.123444,-0.123444 0.123444,-0.3223326 0,-0.4457772 -0.123445,-0.1234442 -0.322333,-0.1234442 -0.445778,0 L 12.09724,5.366569 c -0.0036,0.00355 -0.0058,0.00772 -0.0092,0.011383 h -1.686537 c -0.0033,-0.00367 -0.0056,-0.00784 -0.0092,-0.011383 L 9.9920985,4.9663242 C 9.9303765,4.904602 9.8497605,4.8737905 9.7692098,4.8737905 Z"
       style="fill:#ffffff;stroke:none;stroke-width:0.086794;stroke-linecap:round;stroke-linejoin:round"
       id="rect886" />
    <path
       id="path896"
       d="m 7.2739724,9.2945208 c 0,0 -0.969863,-0.040411 -0.969863,0.9698632 0,1.010273 0,11.84041 0,11.84041"
       style="fill:none;stroke:#000000;stroke-width:0.264583px;stroke-linecap:butt;stroke-linejoin:miter;stroke-opacity:1" />
    <path
       sodipodi:nodetypes="ccczzccccsccscczzccsccsccc"
       d="m 7.5386724,28.256734 c -0.4641976,-0.01111 -0.8658102,-0.326199 -0.9871273,-0.774402 -0.017011,-0.06348 -0.028023,-0.128403 -0.032881,-0.193936 0,0 -0.7899057,-0.924083 -1.0119562,-1.752805 -0.2220506,-0.828721 -0.2152803,-2.377969 0,-3.123776 0.2152802,-0.745808 0.8173492,-1.29783 0.8173492,-1.29783 0.00828,-0.05735 0.021299,-0.113908 0.038921,-0.169104 C 6.538681,20.39272 7.128888,20.087699 7.6809374,20.263753 l 0.3066737,0.09798 c 0.073737,-0.02944 0.1546225,-0.04235 0.2375547,-0.02013 0.204075,0.05468 0.3244476,0.262982 0.2697655,0.467056 L 8.0869282,22.330612 C 8.0322465,22.534688 7.8239465,22.655059 7.6198714,22.600377 7.4965076,22.567322 7.4102053,22.47597 7.3682247,22.365506 l -0.3060031,-0.09731 c 0,0 -0.090941,0.16818 -0.215377,0.631359 -0.1244362,0.463176 -0.071656,1.600091 0.092574,2.213258 0.1642298,0.613167 0.5878471,1.018667 0.5878471,1.018667 l 0.2409091,-0.06509 c 0.047902,-0.08976 0.1290615,-0.161379 0.2355417,-0.18991 0.2040742,-0.05469 0.4123749,0.06569 0.4670568,0.269766 l 0.4080036,1.521961 c 0.054682,0.204074 -0.065692,0.412375 -0.2697655,0.467056 -0.1050379,0.02814 -0.2108511,0.0092 -0.2966081,-0.04295 l -0.4744386,0.128179 c -0.097498,0.02644 -0.1983036,0.03864 -0.2992922,0.03623 z"
       style="fill:#000000;stroke:none;stroke-width:1.03075;stroke-linecap:round;stroke-linejoin:round"
       id="rect898" />
  </g>
</svg>
